<?xml version="1.0" encoding="UTF-8" standalone="yes"?><svg xmlns="http://www.w3.org/2000/svg" xmlns:xlink="http://www.w3.org/1999/xlink" height="1389pt" style="width:1168px;height:1389px;" version="1.1" viewBox="0 0 1168 1389" width="1168pt"><defs><filter height="300%" id="f1" width="300%" x="-1" y="-1"><feGaussianBlur result="blurOut" stdDeviation="2"/><feColorMatrix in="blurOut" result="blurOut2" type="matrix" values="0 0 0 0 0 0 0 0 0 0 0 0 0 0 0 0 0 0 .4 0"/><feOffset dx="4" dy="4" in="blurOut2" result="blurOut3"/><feBlend in="SourceGraphic" in2="blurOut3" mode="normal"/></filter></defs><g><rect fill="#FEFECE" filter="url(#f1)" height="227.375" style="stroke: #A80036; stroke-width: 1.5;" width="261" x="240" y="297"/><ellipse cx="322.75" cy="313" fill="#ADD1B2" rx="11" ry="11" style="stroke: #A80036; stroke-width: 1.0;"/><path d="M325.7188,318.6406 Q325.1406,318.9375 324.5,319.0859 Q323.8594,319.2344 323.1563,319.2344 Q320.6563,319.2344 319.3359,317.5859 Q318.0156,315.9375 318.0156,312.8125 Q318.0156,309.6875 319.3359,308.0313 Q320.6563,306.375 323.1563,306.375 Q323.8594,306.375 324.5078,306.5313 Q325.1563,306.6875 325.7188,306.9844 L325.7188,309.7031 Q325.0938,309.125 324.5,308.8516 Q323.9063,308.5781 323.2813,308.5781 Q321.9375,308.5781 321.25,309.6484 Q320.5625,310.7188 320.5625,312.8125 Q320.5625,314.9063 321.25,315.9766 Q321.9375,317.0469 323.2813,317.0469 Q323.9063,317.0469 324.5,316.7734 Q325.0938,316.5 325.7188,315.9219 L325.7188,318.6406 Z "/><text fill="#000000" font-size="12" lengthAdjust="spacingAndGlyphs" textLength="87" x="343.25" y="318.0156">TilingManager</text><line style="stroke: #A80036; stroke-width: 1.5;" x1="241" x2="500" y1="329" y2="329"/><text fill="#000000" font-size="11" lengthAdjust="spacingAndGlyphs" textLength="156" x="246" y="344">-defaultLayout : LayoutType</text><text fill="#000000" font-size="11" lengthAdjust="spacingAndGlyphs" textLength="174" x="246" y="356.8125">-availableLayouts : LayoutType</text><text fill="#000000" font-size="11" lengthAdjust="spacingAndGlyphs" textLength="103" x="246" y="369.625">-layouts : Tiling[][]</text><text fill="#000000" font-size="11" lengthAdjust="spacingAndGlyphs" textLength="108" x="246" y="382.4375">-desktopCount : int</text><text fill="#000000" font-size="11" lengthAdjust="spacingAndGlyphs" textLength="102" x="246" y="395.25">-screenCount : int</text><line style="stroke: #A80036; stroke-width: 1.5;" x1="241" x2="500" y1="401.0625" y2="401.0625"/><text fill="#000000" font-size="11" lengthAdjust="spacingAndGlyphs" textLength="81" x="246" y="416.0625">-onTileAdded()</text><text fill="#000000" font-size="11" lengthAdjust="spacingAndGlyphs" textLength="98" x="246" y="428.875">-onTileRemoved()</text><text fill="#000000" font-size="11" lengthAdjust="spacingAndGlyphs" textLength="174" x="246" y="441.6875">-onNumberDesktopsChanged()</text><text fill="#000000" font-size="11" lengthAdjust="spacingAndGlyphs" textLength="168" x="246" y="454.5">-onNumberScreensChanged()</text><text fill="#000000" font-size="11" lengthAdjust="spacingAndGlyphs" textLength="165" x="246" y="467.3125">-onCurrentDesktopChanged()</text><text fill="#000000" font-size="11" lengthAdjust="spacingAndGlyphs" textLength="249" x="246" y="480.125">-switchLayout(desktop, screen, layoutIndex)</text><text fill="#000000" font-size="11" lengthAdjust="spacingAndGlyphs" textLength="108" x="246" y="492.9375">-toggleFloating(tile)</text><text fill="#000000" font-size="11" lengthAdjust="spacingAndGlyphs" textLength="130" x="246" y="505.75">-switchFocus(direction)</text><text fill="#000000" font-size="11" lengthAdjust="spacingAndGlyphs" textLength="112" x="246" y="518.5625">-moveTile(direction)</text><polygon fill="#FBFB77" filter="url(#f1)" points="226,8,226,93.7031,517,93.7031,517,18,507,8,226,8" style="stroke: #A80036; stroke-width: 1.0;"/><polygon fill="#FBFB77" points="226,8,226,93.7031,367,93.7031,371,296.97,375,93.7031,517,93.7031,517,18,507,8,226,8" style="stroke: #A80036; stroke-width: 1.0;"/><line style="stroke: #A80036; stroke-width: 1.0;" x1="507" x2="507" y1="8" y2="18"/><line style="stroke: #A80036; stroke-width: 1.0;" x1="517" x2="507" y1="18" y2="18"/><text fill="#000000" font-size="13" lengthAdjust="spacingAndGlyphs" textLength="236" x="232" y="26">Root class which contains one "Tiling"</text><text fill="#000000" font-size="13" lengthAdjust="spacingAndGlyphs" textLength="265" x="232" y="41.1406">instance per screen/desktop, implements</text><text fill="#000000" font-size="13" lengthAdjust="spacingAndGlyphs" textLength="254" x="232" y="56.2813">the keyboard shortcuts and keeps track</text><text fill="#000000" font-size="13" lengthAdjust="spacingAndGlyphs" textLength="270" x="232" y="71.4219">of windows moving from one screen to the</text><text fill="#000000" font-size="13" lengthAdjust="spacingAndGlyphs" textLength="38" x="232" y="86.5625">other.</text><rect fill="#FEFECE" filter="url(#f1)" height="137.6875" style="stroke: #A80036; stroke-width: 1.5;" width="206" x="585" y="342"/><ellipse cx="662.75" cy="358" fill="#ADD1B2" rx="11" ry="11" style="stroke: #A80036; stroke-width: 1.0;"/><path d="M665.7188,363.6406 Q665.1406,363.9375 664.5,364.0859 Q663.8594,364.2344 663.1563,364.2344 Q660.6563,364.2344 659.3359,362.5859 Q658.0156,360.9375 658.0156,357.8125 Q658.0156,354.6875 659.3359,353.0313 Q660.6563,351.375 663.1563,351.375 Q663.8594,351.375 664.5078,351.5313 Q665.1563,351.6875 665.7188,351.9844 L665.7188,354.7031 Q665.0938,354.125 664.5,353.8516 Q663.9063,353.5781 663.2813,353.5781 Q661.9375,353.5781 661.25,354.6484 Q660.5625,355.7188 660.5625,357.8125 Q660.5625,359.9063 661.25,360.9766 Q661.9375,362.0469 663.2813,362.0469 Q663.9063,362.0469 664.5,361.7734 Q665.0938,361.5 665.7188,360.9219 L665.7188,363.6406 Z "/><text fill="#000000" font-size="12" lengthAdjust="spacingAndGlyphs" textLength="42" x="683.25" y="363.0156">TileList</text><line style="stroke: #A80036; stroke-width: 1.5;" x1="586" x2="790" y1="374" y2="374"/><text fill="#000000" font-size="11" lengthAdjust="spacingAndGlyphs" textLength="146" x="591" y="389">+tileAdded : Signal&lt;Tile&gt;</text><text fill="#000000" font-size="11" lengthAdjust="spacingAndGlyphs" textLength="163" x="591" y="401.8125">+tileRemoved : Signal&lt;Tile&gt;</text><line style="stroke: #A80036; stroke-width: 1.5;" x1="586" x2="790" y1="407.625" y2="407.625"/><text fill="#000000" font-size="11" lengthAdjust="spacingAndGlyphs" textLength="176" x="591" y="422.625">+addClient(client : Client) : Tile</text><text fill="#000000" font-size="11" lengthAdjust="spacingAndGlyphs" textLength="161" x="591" y="435.4375">+getTile(client : Client) : Tile</text><text fill="#000000" font-size="11" lengthAdjust="spacingAndGlyphs" textLength="123" x="591" y="448.25">-onClientAdded(client)</text><text fill="#000000" font-size="11" lengthAdjust="spacingAndGlyphs" textLength="140" x="591" y="461.0625">-onClientRemoved(client)</text><text fill="#000000" font-size="11" lengthAdjust="spacingAndGlyphs" textLength="194" x="591" y="473.875">-onClientTabGroupChanged(client)</text><rect fill="#FEFECE" filter="url(#f1)" height="470.8125" style="stroke: #A80036; stroke-width: 1.5;" width="272" x="874" y="176"/><ellipse cx="995.25" cy="192" fill="#ADD1B2" rx="11" ry="11" style="stroke: #A80036; stroke-width: 1.0;"/><path d="M998.2188,197.6406 Q997.6406,197.9375 997,198.0859 Q996.3594,198.2344 995.6563,198.2344 Q993.1563,198.2344 991.8359,196.5859 Q990.5156,194.9375 990.5156,191.8125 Q990.5156,188.6875 991.8359,187.0313 Q993.1563,185.375 995.6563,185.375 Q996.3594,185.375 997.0078,185.5313 Q997.6563,185.6875 998.2188,185.9844 L998.2188,188.7031 Q997.5938,188.125 997,187.8516 Q996.4063,187.5781 995.7813,187.5781 Q994.4375,187.5781 993.75,188.6484 Q993.0625,189.7188 993.0625,191.8125 Q993.0625,193.9063 993.75,194.9766 Q994.4375,196.0469 995.7813,196.0469 Q996.4063,196.0469 997,195.7734 Q997.5938,195.5 998.2188,194.9219 L998.2188,197.6406 Z "/><text fill="#000000" font-size="12" lengthAdjust="spacingAndGlyphs" textLength="21" x="1015.75" y="197.0156">Tile</text><line style="stroke: #A80036; stroke-width: 1.5;" x1="875" x2="1145" y1="208" y2="208"/><text fill="#000000" font-size="11" lengthAdjust="spacingAndGlyphs" textLength="130" x="880" y="223">-savedGeometry : Rect</text><text fill="#000000" font-size="11" lengthAdjust="spacingAndGlyphs" textLength="98" x="880" y="235.8125">+clients : Client[]</text><text fill="#000000" font-size="11" lengthAdjust="spacingAndGlyphs" textLength="87" x="880" y="248.625">+floating : bool</text><text fill="#000000" font-size="11" lengthAdjust="spacingAndGlyphs" textLength="125" x="880" y="261.4375">+forcedFloating : bool</text><text fill="#000000" font-size="11" lengthAdjust="spacingAndGlyphs" textLength="56" x="880" y="274.25">+tileIndex</text><text fill="#000000" font-size="11" lengthAdjust="spacingAndGlyphs" textLength="177" x="880" y="287.0625">+movingStarted : Signal&lt;Tile&gt;</text><text fill="#000000" font-size="11" lengthAdjust="spacingAndGlyphs" textLength="170" x="880" y="299.875">+movingEnded : Signal&lt;Tile&gt;</text><text fill="#000000" font-size="11" lengthAdjust="spacingAndGlyphs" textLength="161" x="880" y="312.6875">+movingStep : Signal&lt;Tile&gt;</text><text fill="#000000" font-size="11" lengthAdjust="spacingAndGlyphs" textLength="180" x="880" y="325.5">+resizingStarted : Signal&lt;Tile&gt;</text><text fill="#000000" font-size="11" lengthAdjust="spacingAndGlyphs" textLength="173" x="880" y="338.3125">+resizingEnded : Signal&lt;Tile&gt;</text><text fill="#000000" font-size="11" lengthAdjust="spacingAndGlyphs" textLength="164" x="880" y="351.125">+resizingStep : Signal&lt;Tile&gt;</text><text fill="#000000" font-size="11" lengthAdjust="spacingAndGlyphs" textLength="198" x="880" y="363.9375">+geometryChanged : Signal&lt;Tile&gt;</text><text fill="#000000" font-size="11" lengthAdjust="spacingAndGlyphs" textLength="224" x="880" y="376.75">+forcedFloatingChanged : Signal&lt;Tile&gt;</text><text fill="#000000" font-size="11" lengthAdjust="spacingAndGlyphs" textLength="183" x="880" y="389.5625">+screenChanged : Signal&lt;Tile&gt;</text><text fill="#000000" font-size="11" lengthAdjust="spacingAndGlyphs" textLength="189" x="880" y="402.375">+desktopChanged : Signal&lt;Tile&gt;</text><line style="stroke: #A80036; stroke-width: 1.5;" x1="875" x2="1145" y1="408.1875" y2="408.1875"/><text fill="#000000" font-size="11" lengthAdjust="spacingAndGlyphs" textLength="147" x="880" y="423.1875">+Tile(firstClient, tileIndex)</text><text fill="#000000" font-size="11" lengthAdjust="spacingAndGlyphs" textLength="181" x="880" y="436">+setGeometry(geometry : Rect)</text><text fill="#000000" font-size="11" lengthAdjust="spacingAndGlyphs" textLength="100" x="880" y="448.8125">+saveGeometry()</text><text fill="#000000" font-size="11" lengthAdjust="spacingAndGlyphs" textLength="115" x="880" y="461.625">+restoreGeometry()</text><text fill="#000000" font-size="11" lengthAdjust="spacingAndGlyphs" textLength="100" x="880" y="474.4375">+getActiveClient()</text><text fill="#000000" font-size="11" lengthAdjust="spacingAndGlyphs" textLength="146" x="880" y="487.25">+syncCustomProperties()</text><text fill="#000000" font-size="11" lengthAdjust="spacingAndGlyphs" textLength="133" x="880" y="500.0625">-updateForcedFloating()</text><text fill="#000000" font-size="11" lengthAdjust="spacingAndGlyphs" textLength="179" x="880" y="512.875">+onClientShadeChanged(client)</text><text fill="#000000" font-size="11" lengthAdjust="spacingAndGlyphs" textLength="199" x="880" y="525.6875">+onClientGeometryChanged(client)</text><text fill="#000000" font-size="11" lengthAdjust="spacingAndGlyphs" textLength="205" x="880" y="538.5">+onClientKeepAboveChanged(client)</text><text fill="#000000" font-size="11" lengthAdjust="spacingAndGlyphs" textLength="205" x="880" y="551.3125">+onClientKeepBelowChanged(client)</text><text fill="#000000" font-size="11" lengthAdjust="spacingAndGlyphs" textLength="202" x="880" y="564.125">+onClientFullScreenChanged(client)</text><text fill="#000000" font-size="11" lengthAdjust="spacingAndGlyphs" textLength="198" x="880" y="576.9375">+onClientMinimizedChanged(client)</text><text fill="#000000" font-size="11" lengthAdjust="spacingAndGlyphs" textLength="260" x="880" y="589.75">+onClientMaximizedStateChanged(client, h, v)</text><text fill="#000000" font-size="11" lengthAdjust="spacingAndGlyphs" textLength="189" x="880" y="602.5625">+onClientDesktopChanged(client)</text><text fill="#000000" font-size="11" lengthAdjust="spacingAndGlyphs" textLength="227" x="880" y="615.375">+onClientStartUserMovedResized(client)</text><text fill="#000000" font-size="11" lengthAdjust="spacingAndGlyphs" textLength="225" x="880" y="628.1875">+onClientStepUserMovedResized(client)</text><text fill="#000000" font-size="11" lengthAdjust="spacingAndGlyphs" textLength="232" x="880" y="641">+onClientFinishUserMovedResized(client)</text><polygon fill="#FBFB77" filter="url(#f1)" points="862,31,862,71.2813,1159,71.2813,1159,41,1149,31,862,31" style="stroke: #A80036; stroke-width: 1.0;"/><polygon fill="#FBFB77" points="862,31,862,71.2813,1006,71.2813,1010,175.72,1014,71.2813,1159,71.2813,1159,41,1149,31,862,31" style="stroke: #A80036; stroke-width: 1.0;"/><line style="stroke: #A80036; stroke-width: 1.0;" x1="1149" x2="1149" y1="31" y2="41"/><line style="stroke: #A80036; stroke-width: 1.0;" x1="1159" x2="1149" y1="41" y2="41"/><text fill="#000000" font-size="13" lengthAdjust="spacingAndGlyphs" textLength="276" x="868" y="49">Manages the windows in one tab group and</text><text fill="#000000" font-size="13" lengthAdjust="spacingAndGlyphs" textLength="259" x="868" y="64.1406">tracks and simplifies resize/move events</text><rect fill="#FEFECE" filter="url(#f1)" height="73.625" style="stroke: #A80036; stroke-width: 1.5;" width="123" x="948" y="824"/><ellipse cx="988.2" cy="840" fill="#ADD1B2" rx="11" ry="11" style="stroke: #A80036; stroke-width: 1.0;"/><path d="M991.1688,845.6406 Q990.5906,845.9375 989.95,846.0859 Q989.3094,846.2344 988.6063,846.2344 Q986.1063,846.2344 984.7859,844.5859 Q983.4656,842.9375 983.4656,839.8125 Q983.4656,836.6875 984.7859,835.0313 Q986.1063,833.375 988.6063,833.375 Q989.3094,833.375 989.9578,833.5313 Q990.6063,833.6875 991.1688,833.9844 L991.1688,836.7031 Q990.5438,836.125 989.95,835.8516 Q989.3563,835.5781 988.7313,835.5781 Q987.3875,835.5781 986.7,836.6484 Q986.0125,837.7188 986.0125,839.8125 Q986.0125,841.9063 986.7,842.9766 Q987.3875,844.0469 988.7313,844.0469 Q989.3563,844.0469 989.95,843.7734 Q990.5438,843.5 991.1688,842.9219 L991.1688,845.6406 Z "/><text fill="#000000" font-size="12" lengthAdjust="spacingAndGlyphs" textLength="35" x="1007.8" y="845.0156">Client</text><line style="stroke: #A80036; stroke-width: 1.5;" x1="949" x2="1070" y1="856" y2="856"/><text fill="#000000" font-size="11" lengthAdjust="spacingAndGlyphs" textLength="106" x="954" y="871">tiling_tileIndex : int</text><text fill="#000000" font-size="11" lengthAdjust="spacingAndGlyphs" textLength="111" x="954" y="883.8125">tiling_floating : bool</text><line style="stroke: #A80036; stroke-width: 1.5;" x1="949" x2="1070" y1="889.625" y2="889.625"/><rect fill="#FEFECE" filter="url(#f1)" height="227.375" style="stroke: #A80036; stroke-width: 1.5;" width="364" x="345" y="747"/><ellipse cx="506.75" cy="763" fill="#A9DCDF" rx="11" ry="11" style="stroke: #A80036; stroke-width: 1.0;"/><path d="M506.8594,758.3438 L505.7031,763.4219 L508.0313,763.4219 L506.8594,758.3438 Z M505.375,756.1094 L508.3594,756.1094 L511.7188,768.5 L509.2656,768.5 L508.5,765.4375 L505.2188,765.4375 L504.4688,768.5 L502.0313,768.5 L505.375,756.1094 Z "/><text fill="#000000" font-size="12" font-style="italic" lengthAdjust="spacingAndGlyphs" textLength="32" x="527.25" y="768.0156">Tiling</text><line style="stroke: #A80036; stroke-width: 1.5;" x1="346" x2="708" y1="779" y2="779"/><line style="stroke: #A80036; stroke-width: 1.5;" x1="346" x2="708" y1="787" y2="787"/><text fill="#000000" font-size="11" lengthAdjust="spacingAndGlyphs" textLength="246" x="351" y="802">Tiling(screenRectangle : QRect, layoutType)</text><text fill="#000000" font-size="11" lengthAdjust="spacingAndGlyphs" textLength="160" x="351" y="814.8125">+setLayoutType(layoutType)</text><text fill="#000000" font-size="11" lengthAdjust="spacingAndGlyphs" textLength="169" x="351" y="827.625">+setLayoutArea(area : QRect)</text><text fill="#000000" font-size="11" lengthAdjust="spacingAndGlyphs" textLength="107" x="351" y="840.4375">+addTile(tile : Tile)</text><text fill="#000000" font-size="11" lengthAdjust="spacingAndGlyphs" textLength="135" x="351" y="853.25">+addTile(tile : Tile, x, y)</text><text fill="#000000" font-size="11" lengthAdjust="spacingAndGlyphs" textLength="129" x="351" y="866.0625">+removeTile(tile : Tile)</text><text fill="#000000" font-size="11" lengthAdjust="spacingAndGlyphs" textLength="194" x="351" y="878.875">+swapTiles(tile1 : Tile, tile2 : Tile)</text><text fill="#000000" font-size="11" lengthAdjust="spacingAndGlyphs" textLength="61" x="351" y="891.6875">+activate()</text><text fill="#000000" font-size="11" lengthAdjust="spacingAndGlyphs" textLength="75" x="351" y="904.5">+deactivate()</text><text fill="#000000" font-size="11" lengthAdjust="spacingAndGlyphs" textLength="97" x="351" y="917.3125">+resetTileSizes()</text><text fill="#000000" font-size="11" lengthAdjust="spacingAndGlyphs" textLength="107" x="351" y="930.125">+getTile(x, y) : Tile</text><text fill="#000000" font-size="11" lengthAdjust="spacingAndGlyphs" textLength="219" x="351" y="942.9375">+getTileGeometry(x, y) : TileGeometry</text><text fill="#000000" font-size="11" lengthAdjust="spacingAndGlyphs" textLength="102" x="351" y="955.75">+getTiles() : Tile[]</text><text fill="#000000" font-size="11" lengthAdjust="spacingAndGlyphs" textLength="352" x="351" y="968.5625">+getAdjacentTile(from : Tile, direction, directOnly : bool) : Tile</text><polygon fill="#FBFB77" filter="url(#f1)" points="27,832.5,27,887.9219,285,887.9219,285,842.5,275,832.5,27,832.5" style="stroke: #A80036; stroke-width: 1.0;"/><polygon fill="#FBFB77" points="27,832.5,27,887.9219,285,887.9219,285,864.348,344.688,860.509,285,856.348,285,842.5,275,832.5,27,832.5" style="stroke: #A80036; stroke-width: 1.0;"/><line style="stroke: #A80036; stroke-width: 1.0;" x1="275" x2="275" y1="832.5" y2="842.5"/><line style="stroke: #A80036; stroke-width: 1.0;" x1="285" x2="275" y1="842.5" y2="842.5"/><text fill="#000000" font-size="13" lengthAdjust="spacingAndGlyphs" textLength="237" x="33" y="850.5">Resizes the windows according to the</text><text fill="#000000" font-size="13" lengthAdjust="spacingAndGlyphs" textLength="219" x="33" y="865.6406">information the class gets from its</text><text fill="#000000" font-size="13" lengthAdjust="spacingAndGlyphs" textLength="105" x="33" y="880.7813">Layout instance.</text><rect fill="#FEFECE" filter="url(#f1)" height="176.125" style="stroke: #A80036; stroke-width: 1.5;" width="345" x="354" y="1076"/><ellipse cx="500.75" cy="1092" fill="#A9DCDF" rx="11" ry="11" style="stroke: #A80036; stroke-width: 1.0;"/><path d="M500.8594,1087.3438 L499.7031,1092.4219 L502.0313,1092.4219 L500.8594,1087.3438 Z M499.375,1085.1094 L502.3594,1085.1094 L505.7188,1097.5 L503.2656,1097.5 L502.5,1094.4375 L499.2188,1094.4375 L498.4688,1097.5 L496.0313,1097.5 L499.375,1085.1094 Z "/><text fill="#000000" font-size="12" font-style="italic" lengthAdjust="spacingAndGlyphs" textLength="43" x="521.25" y="1097.0156">Layout</text><line style="stroke: #A80036; stroke-width: 1.5;" x1="355" x2="698" y1="1108" y2="1108"/><text fill="#000000" font-size="11" lengthAdjust="spacingAndGlyphs" textLength="103" x="360" y="1123">+screenRectangle</text><text fill="#000000" font-size="11" lengthAdjust="spacingAndGlyphs" textLength="129" x="360" y="1135.8125">+tiles : TileGeometry[]</text><text fill="#000000" font-size="11" lengthAdjust="spacingAndGlyphs" text-decoration="underline" textLength="41" x="360" y="1148.625">+name</text><text fill="#000000" font-size="11" lengthAdjust="spacingAndGlyphs" text-decoration="underline" textLength="44" x="360" y="1161.4375">+image</text><line style="stroke: #A80036; stroke-width: 1.5;" x1="355" x2="698" y1="1167.25" y2="1167.25"/><text fill="#000000" font-size="11" lengthAdjust="spacingAndGlyphs" textLength="169" x="360" y="1182.25">+setLayoutArea(area : QRect)</text><text fill="#000000" font-size="11" font-style="italic" lengthAdjust="spacingAndGlyphs" textLength="333" x="360" y="1195.0625">+onLayoutAreaChange(oldArea : QRect, newArea : QRect)</text><text fill="#000000" font-size="11" font-style="italic" lengthAdjust="spacingAndGlyphs" textLength="95" x="360" y="1207.875">+resetTileSizes()</text><text fill="#000000" font-size="11" font-style="italic" lengthAdjust="spacingAndGlyphs" textLength="58" x="360" y="1220.6875">+addTile()</text><text fill="#000000" font-size="11" font-style="italic" lengthAdjust="spacingAndGlyphs" textLength="155" x="360" y="1233.5">+removeTile(tileIndex : int)</text><text fill="#000000" font-size="11" font-style="italic" lengthAdjust="spacingAndGlyphs" textLength="252" x="360" y="1246.3125">+resizeTile(tileIndex : int, rectangle : QRect)</text><polygon fill="#FBFB77" filter="url(#f1)" points="6,1143,6,1183.2813,294,1183.2813,294,1153,284,1143,6,1143" style="stroke: #A80036; stroke-width: 1.0;"/><polygon fill="#FBFB77" points="6,1143,6,1183.2813,294,1183.2813,356.956,1163.549,302,1183.2813,294,1183.2813,294,1153,284,1143,6,1143" style="stroke: #A80036; stroke-width: 1.0;"/><line style="stroke: #A80036; stroke-width: 1.0;" x1="284" x2="284" y1="1143" y2="1153"/><line style="stroke: #A80036; stroke-width: 1.0;" x1="294" x2="284" y1="1153" y2="1153"/><text fill="#000000" font-size="13" lengthAdjust="spacingAndGlyphs" textLength="267" x="12" y="1161">Partitions the screens into rectangles, the</text><text fill="#000000" font-size="13" lengthAdjust="spacingAndGlyphs" textLength="254" x="12" y="1176.1406">subclasses implement different layouts.</text><rect fill="#FEFECE" filter="url(#f1)" height="86.4375" style="stroke: #A80036; stroke-width: 1.5;" width="184" x="783" y="1121"/><ellipse cx="830.25" cy="1137" fill="#ADD1B2" rx="11" ry="11" style="stroke: #A80036; stroke-width: 1.0;"/><path d="M833.2188,1142.6406 Q832.6406,1142.9375 832,1143.0859 Q831.3594,1143.2344 830.6563,1143.2344 Q828.1563,1143.2344 826.8359,1141.5859 Q825.5156,1139.9375 825.5156,1136.8125 Q825.5156,1133.6875 826.8359,1132.0313 Q828.1563,1130.375 830.6563,1130.375 Q831.3594,1130.375 832.0078,1130.5313 Q832.6563,1130.6875 833.2188,1130.9844 L833.2188,1133.7031 Q832.5938,1133.125 832,1132.8516 Q831.4063,1132.5781 830.7813,1132.5781 Q829.4375,1132.5781 828.75,1133.6484 Q828.0625,1134.7188 828.0625,1136.8125 Q828.0625,1138.9063 828.75,1139.9766 Q829.4375,1141.0469 830.7813,1141.0469 Q831.4063,1141.0469 832,1140.7734 Q832.5938,1140.5 833.2188,1139.9219 L833.2188,1142.6406 Z "/><text fill="#000000" font-size="12" lengthAdjust="spacingAndGlyphs" textLength="81" x="850.75" y="1142.0156">TileGeometry</text><line style="stroke: #A80036; stroke-width: 1.5;" x1="784" x2="966" y1="1153" y2="1153"/><text fill="#000000" font-size="11" lengthAdjust="spacingAndGlyphs" textLength="107" x="789" y="1168">+rectangle : QRect</text><text fill="#000000" font-size="11" lengthAdjust="spacingAndGlyphs" textLength="114" x="789" y="1180.8125">+neighbours : int[4]</text><text fill="#000000" font-size="11" lengthAdjust="spacingAndGlyphs" textLength="172" x="789" y="1193.625">+hasDirectNeighbour : bool[4]</text><line style="stroke: #A80036; stroke-width: 1.5;" x1="784" x2="966" y1="1199.4375" y2="1199.4375"/><rect fill="#FEFECE" filter="url(#f1)" height="48" style="stroke: #A80036; stroke-width: 1.5;" width="108" x="29" y="1332"/><ellipse cx="44" cy="1348" fill="#ADD1B2" rx="11" ry="11" style="stroke: #A80036; stroke-width: 1.0;"/><path d="M46.9688,1353.6406 Q46.3906,1353.9375 45.75,1354.0859 Q45.1094,1354.2344 44.4063,1354.2344 Q41.9063,1354.2344 40.5859,1352.5859 Q39.2656,1350.9375 39.2656,1347.8125 Q39.2656,1344.6875 40.5859,1343.0313 Q41.9063,1341.375 44.4063,1341.375 Q45.1094,1341.375 45.7578,1341.5313 Q46.4063,1341.6875 46.9688,1341.9844 L46.9688,1344.7031 Q46.3438,1344.125 45.75,1343.8516 Q45.1563,1343.5781 44.5313,1343.5781 Q43.1875,1343.5781 42.5,1344.6484 Q41.8125,1345.7188 41.8125,1347.8125 Q41.8125,1349.9063 42.5,1350.9766 Q43.1875,1352.0469 44.5313,1352.0469 Q45.1563,1352.0469 45.75,1351.7734 Q46.3438,1351.5 46.9688,1350.9219 L46.9688,1353.6406 Z "/><text fill="#000000" font-size="12" lengthAdjust="spacingAndGlyphs" textLength="76" x="58" y="1353.0156">SpiralLayout</text><line style="stroke: #A80036; stroke-width: 1.5;" x1="30" x2="136" y1="1364" y2="1364"/><line style="stroke: #A80036; stroke-width: 1.5;" x1="30" x2="136" y1="1372" y2="1372"/><rect fill="#FEFECE" filter="url(#f1)" height="48" style="stroke: #A80036; stroke-width: 1.5;" width="118" x="172" y="1332"/><ellipse cx="187" cy="1348" fill="#ADD1B2" rx="11" ry="11" style="stroke: #A80036; stroke-width: 1.0;"/><path d="M189.9688,1353.6406 Q189.3906,1353.9375 188.75,1354.0859 Q188.1094,1354.2344 187.4063,1354.2344 Q184.9063,1354.2344 183.5859,1352.5859 Q182.2656,1350.9375 182.2656,1347.8125 Q182.2656,1344.6875 183.5859,1343.0313 Q184.9063,1341.375 187.4063,1341.375 Q188.1094,1341.375 188.7578,1341.5313 Q189.4063,1341.6875 189.9688,1341.9844 L189.9688,1344.7031 Q189.3438,1344.125 188.75,1343.8516 Q188.1563,1343.5781 187.5313,1343.5781 Q186.1875,1343.5781 185.5,1344.6484 Q184.8125,1345.7188 184.8125,1347.8125 Q184.8125,1349.9063 185.5,1350.9766 Q186.1875,1352.0469 187.5313,1352.0469 Q188.1563,1352.0469 188.75,1351.7734 Q189.3438,1351.5 189.9688,1350.9219 L189.9688,1353.6406 Z "/><text fill="#000000" font-size="12" lengthAdjust="spacingAndGlyphs" textLength="86" x="201" y="1353.0156">ZigZagLayout</text><line style="stroke: #A80036; stroke-width: 1.5;" x1="173" x2="289" y1="1364" y2="1364"/><line style="stroke: #A80036; stroke-width: 1.5;" x1="173" x2="289" y1="1372" y2="1372"/><rect fill="#FEFECE" filter="url(#f1)" height="48" style="stroke: #A80036; stroke-width: 1.5;" width="119" x="325" y="1332"/><ellipse cx="340" cy="1348" fill="#ADD1B2" rx="11" ry="11" style="stroke: #A80036; stroke-width: 1.0;"/><path d="M342.9688,1353.6406 Q342.3906,1353.9375 341.75,1354.0859 Q341.1094,1354.2344 340.4063,1354.2344 Q337.9063,1354.2344 336.5859,1352.5859 Q335.2656,1350.9375 335.2656,1347.8125 Q335.2656,1344.6875 336.5859,1343.0313 Q337.9063,1341.375 340.4063,1341.375 Q341.1094,1341.375 341.7578,1341.5313 Q342.4063,1341.6875 342.9688,1341.9844 L342.9688,1344.7031 Q342.3438,1344.125 341.75,1343.8516 Q341.1563,1343.5781 340.5313,1343.5781 Q339.1875,1343.5781 338.5,1344.6484 Q337.8125,1345.7188 337.8125,1347.8125 Q337.8125,1349.9063 338.5,1350.9766 Q339.1875,1352.0469 340.5313,1352.0469 Q341.1563,1352.0469 341.75,1351.7734 Q342.3438,1351.5 342.9688,1350.9219 L342.9688,1353.6406 Z "/><text fill="#000000" font-size="12" lengthAdjust="spacingAndGlyphs" textLength="87" x="354" y="1353.0156">ColumnLayout</text><line style="stroke: #A80036; stroke-width: 1.5;" x1="326" x2="443" y1="1364" y2="1364"/><line style="stroke: #A80036; stroke-width: 1.5;" x1="326" x2="443" y1="1372" y2="1372"/><rect fill="#FEFECE" filter="url(#f1)" height="48" style="stroke: #A80036; stroke-width: 1.5;" width="98" x="478" y="1332"/><ellipse cx="493" cy="1348" fill="#ADD1B2" rx="11" ry="11" style="stroke: #A80036; stroke-width: 1.0;"/><path d="M495.9688,1353.6406 Q495.3906,1353.9375 494.75,1354.0859 Q494.1094,1354.2344 493.4063,1354.2344 Q490.9063,1354.2344 489.5859,1352.5859 Q488.2656,1350.9375 488.2656,1347.8125 Q488.2656,1344.6875 489.5859,1343.0313 Q490.9063,1341.375 493.4063,1341.375 Q494.1094,1341.375 494.7578,1341.5313 Q495.4063,1341.6875 495.9688,1341.9844 L495.9688,1344.7031 Q495.3438,1344.125 494.75,1343.8516 Q494.1563,1343.5781 493.5313,1343.5781 Q492.1875,1343.5781 491.5,1344.6484 Q490.8125,1345.7188 490.8125,1347.8125 Q490.8125,1349.9063 491.5,1350.9766 Q492.1875,1352.0469 493.5313,1352.0469 Q494.1563,1352.0469 494.75,1351.7734 Q495.3438,1351.5 495.9688,1350.9219 L495.9688,1353.6406 Z "/><text fill="#000000" font-size="12" lengthAdjust="spacingAndGlyphs" textLength="66" x="507" y="1353.0156">RowLayout</text><line style="stroke: #A80036; stroke-width: 1.5;" x1="479" x2="575" y1="1364" y2="1364"/><line style="stroke: #A80036; stroke-width: 1.5;" x1="479" x2="575" y1="1372" y2="1372"/><rect fill="#FEFECE" filter="url(#f1)" height="48" style="stroke: #A80036; stroke-width: 1.5;" width="98" x="611" y="1332"/><ellipse cx="626" cy="1348" fill="#ADD1B2" rx="11" ry="11" style="stroke: #A80036; stroke-width: 1.0;"/><path d="M628.9688,1353.6406 Q628.3906,1353.9375 627.75,1354.0859 Q627.1094,1354.2344 626.4063,1354.2344 Q623.9063,1354.2344 622.5859,1352.5859 Q621.2656,1350.9375 621.2656,1347.8125 Q621.2656,1344.6875 622.5859,1343.0313 Q623.9063,1341.375 626.4063,1341.375 Q627.1094,1341.375 627.7578,1341.5313 Q628.4063,1341.6875 628.9688,1341.9844 L628.9688,1344.7031 Q628.3438,1344.125 627.75,1343.8516 Q627.1563,1343.5781 626.5313,1343.5781 Q625.1875,1343.5781 624.5,1344.6484 Q623.8125,1345.7188 623.8125,1347.8125 Q623.8125,1349.9063 624.5,1350.9766 Q625.1875,1352.0469 626.5313,1352.0469 Q627.1563,1352.0469 627.75,1351.7734 Q628.3438,1351.5 628.9688,1350.9219 L628.9688,1353.6406 Z "/><text fill="#000000" font-size="12" lengthAdjust="spacingAndGlyphs" textLength="66" x="640" y="1353.0156">GridLayout</text><line style="stroke: #A80036; stroke-width: 1.5;" x1="612" x2="708" y1="1364" y2="1364"/><line style="stroke: #A80036; stroke-width: 1.5;" x1="612" x2="708" y1="1372" y2="1372"/><rect fill="#FEFECE" filter="url(#f1)" height="48" style="stroke: #A80036; stroke-width: 1.5;" width="135" x="744" y="1332"/><ellipse cx="759" cy="1348" fill="#ADD1B2" rx="11" ry="11" style="stroke: #A80036; stroke-width: 1.0;"/><path d="M761.9688,1353.6406 Q761.3906,1353.9375 760.75,1354.0859 Q760.1094,1354.2344 759.4063,1354.2344 Q756.9063,1354.2344 755.5859,1352.5859 Q754.2656,1350.9375 754.2656,1347.8125 Q754.2656,1344.6875 755.5859,1343.0313 Q756.9063,1341.375 759.4063,1341.375 Q760.1094,1341.375 760.7578,1341.5313 Q761.4063,1341.6875 761.9688,1341.9844 L761.9688,1344.7031 Q761.3438,1344.125 760.75,1343.8516 Q760.1563,1343.5781 759.5313,1343.5781 Q758.1875,1343.5781 757.5,1344.6484 Q756.8125,1345.7188 756.8125,1347.8125 Q756.8125,1349.9063 757.5,1350.9766 Q758.1875,1352.0469 759.5313,1352.0469 Q760.1563,1352.0469 760.75,1351.7734 Q761.3438,1351.5 761.9688,1350.9219 L761.9688,1353.6406 Z "/><text fill="#000000" font-size="12" lengthAdjust="spacingAndGlyphs" textLength="103" x="773" y="1353.0156">MaximizedLayout</text><line style="stroke: #A80036; stroke-width: 1.5;" x1="745" x2="878" y1="1364" y2="1364"/><line style="stroke: #A80036; stroke-width: 1.5;" x1="745" x2="878" y1="1372" y2="1372"/><rect fill="#FEFECE" filter="url(#f1)" height="48" style="stroke: #A80036; stroke-width: 1.5;" width="123" x="913" y="1332"/><ellipse cx="928" cy="1348" fill="#ADD1B2" rx="11" ry="11" style="stroke: #A80036; stroke-width: 1.0;"/><path d="M930.9688,1353.6406 Q930.3906,1353.9375 929.75,1354.0859 Q929.1094,1354.2344 928.4063,1354.2344 Q925.9063,1354.2344 924.5859,1352.5859 Q923.2656,1350.9375 923.2656,1347.8125 Q923.2656,1344.6875 924.5859,1343.0313 Q925.9063,1341.375 928.4063,1341.375 Q929.1094,1341.375 929.7578,1341.5313 Q930.4063,1341.6875 930.9688,1341.9844 L930.9688,1344.7031 Q930.3438,1344.125 929.75,1343.8516 Q929.1563,1343.5781 928.5313,1343.5781 Q927.1875,1343.5781 926.5,1344.6484 Q925.8125,1345.7188 925.8125,1347.8125 Q925.8125,1349.9063 926.5,1350.9766 Q927.1875,1352.0469 928.5313,1352.0469 Q929.1563,1352.0469 929.75,1351.7734 Q930.3438,1351.5 930.9688,1350.9219 L930.9688,1353.6406 Z "/><text fill="#000000" font-size="12" lengthAdjust="spacingAndGlyphs" textLength="91" x="942" y="1353.0156">FloatingLayout</text><line style="stroke: #A80036; stroke-width: 1.5;" x1="914" x2="1035" y1="1364" y2="1364"/><line style="stroke: #A80036; stroke-width: 1.5;" x1="914" x2="1035" y1="1372" y2="1372"/><path d="M501.308,411 C527.404,411 554.553,411 579.801,411 " fill="none" style="stroke: #A80036; stroke-width: 1.0;"/><polygon fill="#A80036" points="584.825,411,575.825,407,579.825,411,575.825,415,584.825,411" style="stroke: #A80036; stroke-width: 1.0;"/><text fill="#000000" font-size="13" lengthAdjust="spacingAndGlyphs" textLength="8" x="509.1375" y="420.3223">1</text><text fill="#000000" font-size="13" lengthAdjust="spacingAndGlyphs" textLength="8" x="568.972" y="411.6826">1</text><path d="M410.265,524.263 C433.314,590.752 462.411,674.686 485.789,742.123 " fill="none" style="stroke: #A80036; stroke-width: 1.0;"/><polygon fill="#A80036" points="487.462,746.949,488.2946,737.1354,485.8248,742.2246,480.7356,739.7549,487.462,746.949" style="stroke: #A80036; stroke-width: 1.0;"/><text fill="#000000" font-size="13" lengthAdjust="spacingAndGlyphs" textLength="8" x="406.7118" y="545.558">1</text><text fill="#000000" font-size="13" lengthAdjust="spacingAndGlyphs" textLength="7" x="482.8411" y="736.7659">*</text><path d="M791.211,411 C815.873,411 842.619,411 868.669,411 " fill="none" style="stroke: #A80036; stroke-width: 1.0;"/><polygon fill="#A80036" points="873.869,411,864.869,407,868.869,411,864.869,415,873.869,411" style="stroke: #A80036; stroke-width: 1.0;"/><text fill="#000000" font-size="13" lengthAdjust="spacingAndGlyphs" textLength="8" x="799.0933" y="420.3433">1</text><text fill="#000000" font-size="13" lengthAdjust="spacingAndGlyphs" textLength="7" x="859.2125" y="411.7186">*</text><path d="M870.51,624.955 C858.141,639.411 845.26,653.268 832,666 C795.507,701.042 751.806,733.328 709.039,761.125 " fill="none" style="stroke: #A80036; stroke-width: 1.0;"/><polygon fill="#A80036" points="873.985,620.862,865.111,625.1343,870.7491,624.6737,871.2097,630.3117,873.985,620.862" style="stroke: #A80036; stroke-width: 1.0;"/><text fill="#000000" font-size="13" lengthAdjust="spacingAndGlyphs" textLength="7" x="858.8495" y="633.0341">*</text><text fill="#000000" font-size="13" lengthAdjust="spacingAndGlyphs" textLength="7" x="717.0258" y="763.5554">*</text><path d="M1010,646.214 C1010,712.427 1010,777.458 1010,818.308 " fill="none" style="stroke: #A80036; stroke-width: 1.0;"/><polygon fill="#A80036" points="1010,823.662,1014,814.662,1010,818.662,1006,814.662,1010,823.662" style="stroke: #A80036; stroke-width: 1.0;"/><text fill="#000000" font-size="13" lengthAdjust="spacingAndGlyphs" textLength="8" x="1001.1337" y="667.5042">1</text><text fill="#000000" font-size="13" lengthAdjust="spacingAndGlyphs" textLength="7" x="1010.7455" y="813.9144">*</text><path d="M527,974.257 C527,1006.037 527,1040.219 527,1070.695 " fill="none" style="stroke: #A80036; stroke-width: 1.0;"/><polygon fill="#A80036" points="527,1075.946,531,1066.946,527,1070.946,523,1066.946,527,1075.946" style="stroke: #A80036; stroke-width: 1.0;"/><text fill="#000000" font-size="13" lengthAdjust="spacingAndGlyphs" textLength="8" x="518.0008" y="995.3849">1</text><text fill="#000000" font-size="13" lengthAdjust="spacingAndGlyphs" textLength="8" x="526.9835" y="1065.9349">1</text><path d="M336.698,1260.579 C328.05,1264.516 319.455,1268.342 311,1272 C279.107,1285.7978 193.835,1316.626 137.097,1336.8501 " fill="none" style="stroke: #A80036; stroke-width: 1.0;"/><polygon fill="none" points="333.991,1254.119,355.083,1252.083,339.864,1266.827,333.991,1254.119" style="stroke: #A80036; stroke-width: 1.0;"/><path d="M374.164,1263.137 C334.569,1288.8204 295.435,1314.2041 268.116,1331.9245 " fill="none" style="stroke: #A80036; stroke-width: 1.0;"/><polygon fill="none" points="370.54,1257.144,391.129,1252.133,378.159,1268.889,370.54,1257.144" style="stroke: #A80036; stroke-width: 1.0;"/><path d="M449.366,1268.236 C431.628,1292.0519 414.397,1315.1868 402.084,1331.7196 " fill="none" style="stroke: #A80036; stroke-width: 1.0;"/><polygon fill="none" points="443.799,1263.992,461.359,1252.133,455.027,1272.354,443.799,1263.992" style="stroke: #A80036; stroke-width: 1.0;"/><path d="M527,1272.33 C527,1294.6868 527,1316.136 527,1331.7196 " fill="none" style="stroke: #A80036; stroke-width: 1.0;"/><polygon fill="none" points="520,1272.133,527,1252.133,534,1272.133,520,1272.133" style="stroke: #A80036; stroke-width: 1.0;"/><path d="M599.442,1268.578 C615.856,1292.2732 631.783,1315.2659 643.181,1331.7196 " fill="none" style="stroke: #A80036; stroke-width: 1.0;"/><polygon fill="none" points="593.685,1272.56,588.05,1252.133,605.193,1264.588,593.685,1272.56" style="stroke: #A80036; stroke-width: 1.0;"/><path d="M674.149,1263.481 C711.965,1289.0469 749.294,1314.2832 775.388,1331.9245 " fill="none" style="stroke: #A80036; stroke-width: 1.0;"/><polygon fill="none" points="670.012,1269.133,657.363,1252.133,677.853,1257.535,670.012,1269.133" style="stroke: #A80036; stroke-width: 1.0;"/><path d="M715.314,1260.603 C723.955,1264.54 732.546,1268.359 741,1272 C798.264,1296.6641 865.409,1320.3369 912.87,1336.2288 " fill="none" style="stroke: #A80036; stroke-width: 1.0;"/><polygon fill="none" points="712.156,1266.855,696.951,1252.097,718.041,1254.151,712.156,1266.855" style="stroke: #A80036; stroke-width: 1.0;"/><path d="M699.216,1164 C726.208,1164 753.257,1164 777.765,1164 " fill="none" style="stroke: #A80036; stroke-width: 1.0;"/><polygon fill="#A80036" points="782.955,1164,773.955,1160,777.955,1164,773.955,1168,782.955,1164" style="stroke: #A80036; stroke-width: 1.0;"/><text fill="#000000" font-size="13" lengthAdjust="spacingAndGlyphs" textLength="7" x="768.1456" y="1164.6902">*</text></g></svg>